<svg width="51" height="51" viewBox="0 0 51 51" fill="none" xmlns="http://www.w3.org/2000/svg">
<path d="M46.7391 28.9691L45.2599 23.6604C45.1772 23.3606 45.0738 23.0707 44.9497 22.7887C44.8247 22.5077 44.6809 22.2397 44.5172 21.9835C44.3536 21.7274 44.1728 21.4881 43.9741 21.2647C43.7763 21.0403 43.5623 20.8358 43.3348 20.6501C43.1064 20.4635 42.8663 20.2987 42.6146 20.1557C42.3628 20.0117 42.102 19.8916 41.8323 19.7943C41.5625 19.697 41.2883 19.6235 41.0078 19.5749C40.7281 19.5262 40.4458 19.5024 40.1625 19.5044H10.9512C10.667 19.5024 10.3856 19.5262 10.105 19.5759C9.82541 19.6245 9.55026 19.697 9.28051 19.7943C9.01166 19.8916 8.75 20.0127 8.49823 20.1557C8.24646 20.2997 8.00638 20.4645 7.77799 20.6501C7.5496 20.8358 7.3365 21.0413 7.13868 21.2647C6.93997 21.4891 6.75923 21.7284 6.59558 21.9845C6.43194 22.2397 6.28807 22.5087 6.16308 22.7897C6.0381 23.0707 5.93469 23.3616 5.85287 23.6614L5.07059 26.4702C5.01125 26.6816 4.98607 26.8981 4.99326 27.1185C5.00046 27.3389 5.04002 27.5524 5.11285 27.7579C5.18568 27.9644 5.28639 28.151 5.41587 28.3188C5.54535 28.4876 5.69641 28.6276 5.86905 28.7398L31.9378 45.6717C32.1123 45.7849 32.2984 45.8633 32.4971 45.906C32.6949 45.9497 32.8945 45.9547 33.0942 45.9229C33.2947 45.8911 33.4844 45.8226 33.6633 45.7194C33.8423 45.6161 34.0005 45.4821 34.139 45.3193L46.3389 30.8853C46.4459 30.7592 46.5359 30.6202 46.6087 30.4673C46.6824 30.3154 46.7364 30.1546 46.7714 29.9868C46.8065 29.819 46.8218 29.6483 46.8164 29.4755C46.811 29.3037 46.7849 29.135 46.7391 28.9691Z" fill="#4193D2"/>
<path d="M14.642 29.9532L7.67753 25.411C7.56171 25.3353 7.4405 25.2756 7.31301 25.2308C7.18462 25.186 7.05444 25.1571 6.92066 25.1452C6.78689 25.1332 6.65401 25.1382 6.52113 25.1591C6.38915 25.181 6.25986 25.2188 6.13506 25.2726C6.01027 25.3263 5.89175 25.394 5.78132 25.4776C5.66999 25.5613 5.56943 25.6578 5.47785 25.7663C5.38628 25.8748 5.30727 25.9933 5.23993 26.1227C5.17349 26.2511 5.12052 26.3865 5.08102 26.5289L1.56243 39.207C1.50766 39.4022 1.48163 39.6032 1.48432 39.8083C1.48612 40.0134 1.51664 40.2125 1.575 40.4076C1.63336 40.6017 1.71686 40.7819 1.82639 40.9471C1.93503 41.1124 2.06432 41.2557 2.21425 41.3762C2.36329 41.4976 2.5258 41.5892 2.70177 41.6539C2.87685 41.7186 3.05731 41.7514 3.24227 41.7534C3.42722 41.7554 3.60768 41.7256 3.78455 41.6648C3.96053 41.6041 4.12483 41.5155 4.27656 41.3981L14.7587 33.2622C14.8188 33.2154 14.8772 33.1646 14.932 33.1089C14.9867 33.0541 15.0379 32.9954 15.0864 32.9336C15.1349 32.8709 15.1798 32.8052 15.2202 32.7375C15.2615 32.6689 15.2983 32.5982 15.3306 32.5245C15.3638 32.4509 15.3926 32.3752 15.4168 32.2975C15.441 32.2199 15.4608 32.1413 15.477 32.0616C15.4922 31.981 15.503 31.9004 15.5093 31.8177C15.5156 31.7361 15.5174 31.6545 15.5147 31.5729C15.512 31.4902 15.5039 31.4086 15.4922 31.328C15.4796 31.2473 15.4635 31.1677 15.4419 31.0891C15.4213 31.0104 15.3953 30.9328 15.3656 30.8581C15.336 30.7825 15.3019 30.7098 15.2642 30.6391C15.2265 30.5694 15.1843 30.5017 15.1385 30.437C15.0936 30.3723 15.0442 30.3106 14.9921 30.2529C14.9392 30.1951 14.8835 30.1414 14.8251 30.0916C14.7668 30.0408 14.7057 29.995 14.642 29.9532Z" fill="#689F38"/>
<mask id="mask0_207_3" style="mask-type:luminance" maskUnits="userSpaceOnUse" x="26" y="27" width="25" height="24">
<path d="M26.6487 27.4538H51V51H26.6487V27.4538Z" fill="white"/>
</mask>
<g mask="url(#mask0_207_3)">
<path d="M50.6563 43.3239L46.6728 28.9873C46.6504 28.9058 46.6226 28.8253 46.5903 28.7477C46.558 28.6692 46.5221 28.5947 46.4808 28.5212C46.4395 28.4486 46.3937 28.379 46.3453 28.3135C46.2959 28.2469 46.2421 28.1853 46.1855 28.1266C46.129 28.068 46.0689 28.0143 46.0061 27.9646C45.9432 27.9149 45.8777 27.8692 45.8086 27.8295C45.7404 27.7887 45.6695 27.7539 45.5978 27.7241C45.5251 27.6943 45.4506 27.6695 45.3752 27.6506C45.2998 27.6307 45.2235 27.6168 45.1464 27.6088C45.0692 27.6009 44.992 27.5979 44.9148 27.6009C44.8377 27.6049 44.7605 27.6128 44.6842 27.6267C44.6079 27.6416 44.5326 27.6615 44.4581 27.6864C44.3845 27.7112 44.3118 27.742 44.2418 27.7768C44.1709 27.8126 44.1027 27.8533 44.0372 27.899C43.9717 27.9448 43.9089 27.9944 43.8497 28.0491C43.7895 28.1038 43.733 28.1624 43.68 28.225L27.3118 47.6469C27.1943 47.787 27.0964 47.9431 27.0202 48.114C26.943 48.2859 26.89 48.4658 26.8604 48.6546C26.8317 48.8434 26.8272 49.0323 26.8479 49.2221C26.8685 49.4129 26.9134 49.5948 26.9825 49.7707C27.0507 49.9466 27.1413 50.1076 27.2526 50.2537C27.3639 50.3997 27.4922 50.526 27.6367 50.6303C27.7811 50.7356 27.9355 50.8152 28.1015 50.8698C28.2666 50.9255 28.4362 50.9523 28.6094 50.9523H45.569C45.7763 50.9523 45.9836 50.9394 46.19 50.9125C46.3955 50.8857 46.6001 50.846 46.802 50.7923C47.004 50.7396 47.2023 50.673 47.397 50.5945C47.5917 50.515 47.782 50.4236 47.9668 50.3202C48.1526 50.2169 48.3321 50.1016 48.5044 49.9754C48.6776 49.8482 48.8436 49.711 49.0024 49.563C49.1613 49.4139 49.3111 49.2559 49.4529 49.0889C49.5947 48.921 49.7275 48.7451 49.8504 48.5602C49.9743 48.3754 50.0874 48.1826 50.1906 47.9828C50.2938 47.784 50.3853 47.5783 50.4669 47.3667C50.5477 47.155 50.6177 46.9393 50.676 46.7187C50.7353 46.4981 50.7819 46.2745 50.816 46.0479C50.851 45.8213 50.8744 45.5937 50.8851 45.3641C50.8959 45.1346 50.8941 44.905 50.8806 44.6754C50.8672 44.4459 50.8421 44.2183 50.8044 43.9927C50.7667 43.7661 50.7173 43.5435 50.6563 43.3239Z" fill="#689F38"/>
</g>
<mask id="mask1_207_3" style="mask-type:luminance" maskUnits="userSpaceOnUse" x="0" y="29" width="35" height="22">
<path d="M0 29.4891H34.6892V51H0V29.4891Z" fill="white"/>
</mask>
<g mask="url(#mask1_207_3)">
<path d="M33.7003 42.3191L14.6444 29.9055C14.4972 29.8101 14.342 29.7396 14.1768 29.6938C14.0117 29.6481 13.8448 29.6283 13.6743 29.6362C13.5047 29.6432 13.3396 29.6769 13.1781 29.7376C13.0174 29.7972 12.8667 29.8817 12.7276 29.989L2.25064 38.1114C1.91771 38.3688 1.69157 38.7136 1.57222 39.1439L0.410109 43.3229C0.349087 43.5425 0.299731 43.7651 0.262041 43.9917C0.225248 44.2173 0.199224 44.4459 0.185763 44.6744C0.172303 44.904 0.171405 45.1336 0.182174 45.3631C0.192943 45.5927 0.215377 45.8203 0.250375 46.0469C0.285373 46.2735 0.332037 46.4971 0.390367 46.7177C0.448696 46.9383 0.518692 47.155 0.599456 47.3657C0.681118 47.5773 0.773549 47.7831 0.87585 47.9828C0.979049 48.1826 1.09212 48.3744 1.21596 48.5592C1.3389 48.7441 1.47171 48.921 1.6135 49.0879C1.75528 49.2559 1.90604 49.4139 2.06398 49.562C2.22282 49.711 2.38884 49.8482 2.56203 49.9744C2.73523 50.1016 2.9138 50.2169 3.09956 50.3202C3.28442 50.4236 3.47467 50.515 3.6694 50.5945C3.86503 50.673 4.06335 50.7386 4.26526 50.7923C4.46717 50.846 4.67088 50.8857 4.87728 50.9125C5.08367 50.9394 5.29007 50.9523 5.49737 50.9523H28.6094C28.8553 50.9523 29.0904 50.8986 29.3166 50.7893C29.5418 50.681 29.7383 50.5269 29.9062 50.3282L34.0987 45.3532C34.1894 45.2459 34.2683 45.1286 34.3347 45.0014C34.402 44.8742 34.455 44.74 34.4945 44.5999C34.5348 44.4588 34.56 44.3157 34.5707 44.1686C34.5806 44.0225 34.577 43.8764 34.5573 43.7303C34.5384 43.5852 34.5052 43.4431 34.4577 43.306C34.4092 43.1688 34.3482 43.0386 34.2746 42.9164C34.2001 42.7952 34.1149 42.6829 34.018 42.5825C33.921 42.4811 33.8151 42.3937 33.7012 42.3191H33.7003Z" fill="#4193D2"/>
</g>
<mask id="mask2_207_3" style="mask-type:luminance" maskUnits="userSpaceOnUse" x="0" y="23" width="48" height="28">
<path d="M0 23.892H47.0946V51H0V23.892Z" fill="white"/>
</mask>
<g mask="url(#mask2_207_3)">
<path d="M46.9672 30.0646L29.3659 50.9523H24.5219L29.9869 44.4678L13.8224 33.9354L0.178589 44.5075C0.212689 44.104 0.289864 43.7115 0.409216 43.3289L1.75708 38.495L10.4698 31.7351L4.68524 27.9627L5.74954 24.1107L32.4709 41.5211L45.5305 26.0367C45.6005 25.9413 45.683 25.8628 45.7781 25.8011L46.9672 30.0646Z" fill="#FFB300"/>
</g>
<path d="M34.1558 3.89926C33.563 3.25407 32.9181 2.68145 32.2213 2.18139C31.5236 1.68134 30.7882 1.26381 30.0151 0.929775C29.2411 0.594751 28.4447 0.350193 27.6259 0.195108C26.808 0.0400221 25.9838 -0.0226087 25.1533 0.00721556C24.7587 0.0241158 24.365 0.059905 23.974 0.117565C23.5821 0.174231 23.1938 0.252767 22.809 0.350193C22.4234 0.448612 22.044 0.565921 21.6682 0.704106C21.2934 0.841297 20.9257 0.999365 20.5642 1.17533C20.2019 1.35228 19.8486 1.54713 19.5042 1.75988C19.1589 1.97362 18.8244 2.20525 18.4988 2.45379C18.1742 2.70232 17.8603 2.96776 17.5571 3.2491C17.2549 3.53044 16.9652 3.82769 16.6872 4.13885C16.4101 4.45101 16.1473 4.77709 15.898 5.11708C15.6478 5.45608 15.4137 5.80801 15.1949 6.17186C14.9752 6.53671 14.7716 6.9115 14.5841 7.29723C14.3967 7.68196 14.2263 8.07663 14.0729 8.48025C13.9187 8.88387 13.7833 9.29445 13.664 9.71199C13.5456 10.1295 13.4452 10.553 13.3626 10.9805C13.2801 11.409 13.2156 11.8404 13.1698 12.2759C13.1241 12.7103 13.0972 13.1467 13.0891 13.5851C13.0775 14.3308 13.1214 15.0724 13.2209 15.811C13.3205 16.5487 13.4739 17.2724 13.6819 17.9822C13.8891 18.692 14.1474 19.378 14.4577 20.0401C14.768 20.7022 15.1249 21.3315 15.5285 21.9279C15.7518 22.2998 21.3418 30.9159 23.1283 33.6598C23.1938 33.7602 23.2637 33.8556 23.339 33.9461C23.4144 34.0365 23.4942 34.123 23.5785 34.2036C23.6628 34.2831 23.7516 34.3586 23.844 34.4272C23.9354 34.4958 24.0314 34.5585 24.13 34.6151C24.2296 34.6718 24.3309 34.7215 24.435 34.7643C24.5399 34.808 24.6457 34.8438 24.7542 34.8736C24.8619 34.9024 24.9713 34.9243 25.0816 34.9392C25.1928 34.9551 25.3031 34.9621 25.4143 34.9631C25.5255 34.9641 25.6367 34.9571 25.7479 34.9432C25.8582 34.9293 25.9677 34.9074 26.0762 34.8796C26.1847 34.8517 26.2905 34.8159 26.3955 34.7742C26.5004 34.7314 26.6017 34.6827 26.7013 34.6281C26.8008 34.5724 26.8968 34.5107 26.9901 34.4422C27.0824 34.3746 27.1721 34.3 27.2564 34.2205C27.3416 34.1409 27.4223 34.0564 27.4986 33.966C27.5739 33.8755 27.6456 33.7811 27.7111 33.6816C27.7793 33.5822 35.1539 22.4031 35.4418 21.9985C35.8373 21.406 36.1889 20.7827 36.4956 20.1296C36.8032 19.4754 37.0615 18.7984 37.2714 18.0985C37.4812 17.3997 37.64 16.6859 37.7476 15.9582C37.8552 15.2304 37.9099 14.4988 37.9126 13.7611C37.9153 12.8415 37.8346 11.9309 37.6714 11.0292C37.5081 10.1275 37.2651 9.2527 36.9422 8.40569C36.6194 7.55769 36.2239 6.75542 35.7548 5.9959C35.2849 5.23737 34.7522 4.53849 34.1558 3.89926Z" fill="#80AB24"/>
<path d="M30.8969 14.0137C30.8969 14.2084 30.8879 14.4011 30.8708 14.5949C30.8538 14.7876 30.8286 14.9793 30.7945 15.1701C30.7603 15.3598 30.7181 15.5476 30.6669 15.7333C30.6166 15.9191 30.5582 16.1018 30.4908 16.2806C30.4243 16.4604 30.3497 16.6351 30.2671 16.8069C30.1853 16.9777 30.0954 17.1434 29.9984 17.3052C29.9014 17.466 29.798 17.6218 29.6866 17.7716C29.5761 17.9224 29.4593 18.0652 29.3362 18.203C29.2122 18.3398 29.0828 18.4696 28.9481 18.5935C28.8133 18.7163 28.6731 18.8312 28.5285 18.939C28.3829 19.0469 28.2338 19.1467 28.0792 19.2386C27.9256 19.3295 27.7684 19.4124 27.6066 19.4873C27.4458 19.5612 27.2814 19.6261 27.1143 19.683C26.9471 19.7389 26.7782 19.7859 26.6066 19.8238C26.4359 19.8618 26.2634 19.8897 26.09 19.9087C25.9157 19.9287 25.7414 19.9377 25.5671 19.9377C25.3928 19.9377 25.2185 19.9287 25.0451 19.9087C24.8707 19.8897 24.6991 19.8618 24.5275 19.8238C24.3559 19.7859 24.187 19.7389 24.0199 19.683C23.8528 19.6261 23.6892 19.5612 23.5275 19.4873C23.3667 19.4124 23.2086 19.3295 23.0549 19.2386C22.9013 19.1467 22.7512 19.0469 22.6066 18.939C22.461 18.8312 22.3208 18.7163 22.1861 18.5935C22.0513 18.4696 21.9219 18.3398 21.7988 18.203C21.6757 18.0652 21.558 17.9224 21.4475 17.7716C21.337 17.6218 21.2328 17.466 21.1357 17.3052C21.0387 17.1434 20.9498 16.9777 20.8671 16.8069C20.7844 16.6351 20.7099 16.4604 20.6434 16.2806C20.5769 16.1018 20.5176 15.9191 20.4673 15.7333C20.417 15.5476 20.3738 15.3598 20.3397 15.1701C20.3064 14.9793 20.2804 14.7876 20.2633 14.5949C20.2462 14.4011 20.2382 14.2084 20.2382 14.0137C20.2382 13.8199 20.2462 13.6262 20.2633 13.4334C20.2804 13.2407 20.3064 13.049 20.3397 12.8582C20.3738 12.6685 20.417 12.4797 20.4673 12.294C20.5176 12.1092 20.5769 11.9265 20.6434 11.7467C20.7099 11.5679 20.7844 11.3922 20.8671 11.2214C20.9498 11.0506 21.0387 10.8839 21.1357 10.7231C21.2328 10.5613 21.337 10.4055 21.4475 10.2557C21.558 10.1059 21.6757 9.96211 21.7988 9.8253C21.9219 9.68848 22.0513 9.55766 22.1861 9.43482C22.3208 9.31199 22.461 9.19615 22.6066 9.08829C22.7512 8.98044 22.9013 8.88157 23.0549 8.78969C23.2086 8.69782 23.3667 8.61593 23.5275 8.54103C23.6892 8.46713 23.8528 8.40122 24.0199 8.34529C24.187 8.28937 24.3559 8.24243 24.5275 8.20448C24.6991 8.16653 24.8707 8.13757 25.0451 8.1186C25.2185 8.09963 25.3928 8.09064 25.5671 8.09064C25.7414 8.09064 25.9157 8.09963 26.09 8.1186C26.2634 8.13757 26.4359 8.16653 26.6066 8.20448C26.7782 8.24243 26.9471 8.28937 27.1143 8.34529C27.2814 8.40122 27.4458 8.46713 27.6066 8.54103C27.7684 8.61593 27.9256 8.69782 28.0792 8.78969C28.2338 8.88157 28.3829 8.98044 28.5285 9.08829C28.6731 9.19615 28.8133 9.31199 28.9481 9.43482C29.0828 9.55766 29.2122 9.68848 29.3362 9.8253C29.4593 9.96211 29.5761 10.1059 29.6866 10.2557C29.798 10.4055 29.9014 10.5613 29.9984 10.7231C30.0954 10.8839 30.1853 11.0506 30.2671 11.2214C30.3497 11.3922 30.4243 11.5679 30.4908 11.7467C30.5582 11.9265 30.6166 12.1092 30.6669 12.294C30.7181 12.4797 30.7603 12.6685 30.7945 12.8582C30.8286 13.049 30.8538 13.2407 30.8708 13.4334C30.8879 13.6262 30.8969 13.8199 30.8969 14.0137Z" fill="#80AB24"/>
<path d="M32.9206 19.2875C32.9206 19.3733 32.9047 19.4569 32.874 19.5364C32.8433 19.6158 32.7997 19.6857 32.7423 19.7471C32.6858 19.8074 32.6195 19.8551 32.5452 19.8879C32.4709 19.9207 32.3937 19.9377 32.3134 19.9377C32.2332 19.9377 32.155 19.9207 32.0807 19.8879C32.0064 19.8551 31.941 19.8074 31.8846 19.7471C31.8271 19.6857 31.7836 19.6158 31.7528 19.5364C31.7221 19.4569 31.7063 19.3733 31.7063 19.2875C31.7063 19.2007 31.7221 19.1181 31.7528 19.0387C31.7836 18.9593 31.8271 18.8883 31.8846 18.828C31.941 18.7666 32.0064 18.72 32.0807 18.6872C32.155 18.6543 32.2332 18.6374 32.3134 18.6374C32.3937 18.6374 32.4709 18.6543 32.5452 18.6872C32.6195 18.72 32.6858 18.7666 32.7423 18.828C32.7997 18.8883 32.8433 18.9593 32.874 19.0387C32.9047 19.1181 32.9206 19.2007 32.9206 19.2875Z" fill="black"/>
<path d="M19.9683 19.2875C19.9683 19.3733 19.9551 19.4569 19.9277 19.5364C19.9004 19.6158 19.8608 19.6857 19.8106 19.7471C19.7603 19.8074 19.7013 19.8551 19.6352 19.8879C19.5691 19.9207 19.5004 19.9377 19.429 19.9377C19.3568 19.9377 19.2881 19.9207 19.222 19.8879C19.1559 19.8551 19.0977 19.8074 19.0466 19.7471C18.9964 19.6857 18.9576 19.6158 18.9294 19.5364C18.9021 19.4569 18.8889 19.3733 18.8889 19.2875C18.8889 19.2007 18.9021 19.1181 18.9294 19.0387C18.9576 18.9593 18.9964 18.8883 19.0466 18.828C19.0977 18.7666 19.1559 18.72 19.222 18.6872C19.2881 18.6543 19.3568 18.6374 19.429 18.6374C19.5004 18.6374 19.5691 18.6543 19.6352 18.6872C19.7013 18.72 19.7603 18.7666 19.8106 18.828C19.8608 18.8883 19.9004 18.9593 19.9277 19.0387C19.9551 19.1181 19.9683 19.2007 19.9683 19.2875Z" fill="black"/>
<mask id="mask3_207_3" style="mask-type:luminance" maskUnits="userSpaceOnUse" x="30" y="17" width="5" height="5">
<path d="M30.3243 17.0228H34.4595V21.4443H30.3243V17.0228Z" fill="white"/>
</mask>
<g mask="url(#mask3_207_3)">
<path d="M32.3048 17.0725C31.2162 17.0725 30.3341 18.0504 30.3341 19.2579C30.3341 20.4654 31.2162 21.4433 32.3048 21.4433C33.3924 21.4433 34.2754 20.4654 34.2754 19.2579C34.2754 18.0504 33.3924 17.0725 32.3048 17.0725ZM32.3048 20.354C31.76 20.354 31.3167 19.8621 31.3167 19.2579C31.3167 18.6537 31.76 18.1617 32.3048 18.1617C32.8495 18.1617 33.2928 18.6537 33.2928 19.2579C33.2928 19.8621 32.8495 20.354 32.3048 20.354Z" fill="black"/>
</g>
<mask id="mask4_207_3" style="mask-type:luminance" maskUnits="userSpaceOnUse" x="17" y="17" width="5" height="5">
<path d="M17.4595 17.0228H21.5946V21.4443H17.4595V17.0228Z" fill="white"/>
</mask>
<g mask="url(#mask4_207_3)">
<path d="M19.4732 17.0725C18.3847 17.0725 17.5026 18.0504 17.5026 19.2579C17.5026 20.4654 18.3847 21.4433 19.4732 21.4433C20.5608 21.4433 21.443 20.4654 21.443 19.2579C21.443 18.0504 20.5608 17.0725 19.4732 17.0725ZM19.4732 20.354C18.9285 20.354 18.4852 19.8621 18.4852 19.2579C18.4852 18.6537 18.9285 18.1617 19.4732 18.1617C20.0179 18.1617 20.4612 18.6537 20.4612 19.2579C20.4612 19.8621 20.0179 20.354 19.4732 20.354Z" fill="black"/>
</g>
<mask id="mask5_207_3" style="mask-type:luminance" maskUnits="userSpaceOnUse" x="34" y="14" width="2" height="3">
<path d="M34.4595 14.7331H35.4861V16.514H34.4595V14.7331Z" fill="white"/>
</mask>
<g mask="url(#mask5_207_3)">
<path d="M35.4816 14.9856V16.4117H34.796C34.6757 16.4117 34.577 16.3024 34.577 16.1692V15.229C34.577 15.0949 34.6757 14.9856 34.796 14.9856H35.4816Z" fill="black"/>
</g>
<path d="M33.5952 13.2918H30.7618V11.4136H32.6006C32.6417 11.4136 32.7134 11.4625 32.7326 11.5033L33.5952 13.2918Z" fill="black"/>
<mask id="mask6_207_3" style="mask-type:luminance" maskUnits="userSpaceOnUse" x="29" y="9" width="7" height="11">
<path d="M29.4054 9.89929H35.4861V19.3126H29.4054V9.89929Z" fill="white"/>
</mask>
<g mask="url(#mask6_207_3)">
<path d="M34.796 14.4996H35.4816V14.0593C35.4816 13.8 35.382 13.4144 35.2572 13.1858C35.2527 13.1788 35.2483 13.1709 35.2447 13.1649L33.6662 10.4429C33.5361 10.2173 33.2318 10.0334 32.9904 10.0334H29.566V19.2579H29.8963C29.8963 17.7851 30.9767 16.5866 32.3048 16.5866C33.633 16.5866 34.7134 17.7851 34.7134 19.2579H35.0437C35.2842 19.2579 35.4816 19.0393 35.4816 18.772V16.8976H34.796C34.4343 16.8976 34.1391 16.5707 34.1391 16.1692V15.2291C34.1391 14.8266 34.4343 14.4996 34.796 14.4996ZM34.0835 13.5704C34.0224 13.6867 33.9094 13.7533 33.7712 13.7533H30.7057C30.4643 13.7533 30.2678 13.5346 30.2678 13.2673V11.4357C30.2678 11.1674 30.4643 10.9497 30.7057 10.9497H32.5938C32.7948 10.9497 33.0129 11.0909 33.1116 11.2846L34.0736 13.1788C34.1409 13.312 34.1454 13.4541 34.0835 13.5704Z" fill="black"/>
</g>
<mask id="mask7_207_3" style="mask-type:luminance" maskUnits="userSpaceOnUse" x="15" y="17" width="4" height="3">
<path d="M15.1549 17.0228H18.1486V19.3126H15.1549V17.0228Z" fill="white"/>
</mask>
<g mask="url(#mask7_207_3)">
<path d="M17.0645 19.2576H15.5973C15.3559 19.2576 15.1584 19.039 15.1584 18.7716V17.5155C15.1584 17.2481 15.3559 17.0295 15.5973 17.0295H18.1458C17.4943 17.5085 17.0645 18.3284 17.0645 19.2576Z" fill="black"/>
</g>
<path d="M29.1428 17.0482V19.2153H21.863C21.863 18.3115 21.4312 17.5141 20.7777 17.0482H29.1428Z" fill="black"/>
<mask id="mask8_207_3" style="mask-type:luminance" maskUnits="userSpaceOnUse" x="15" y="6" width="15" height="11">
<path d="M15.6216 6.56113H29.1756V16.7685H15.6216V6.56113Z" fill="white"/>
</mask>
<g mask="url(#mask8_207_3)">
<path d="M28.6893 6.56116H19.1474C18.9069 6.56116 18.5713 6.71619 18.4008 6.90402C18.3999 6.90501 18.3999 6.90501 18.3999 6.90501L16.1232 9.43027C16.1179 9.43623 16.1125 9.44319 16.1071 9.44816C15.9438 9.64294 15.8127 10.0017 15.8127 10.2611V16.5439H29.1281V7.04713C29.1281 6.77979 28.9307 6.56116 28.6893 6.56116ZM22.1716 14.9926H19.5575C19.3125 14.9926 19.1115 14.8763 19.0065 14.6726C18.8997 14.4698 18.9096 14.2184 19.0325 13.9829L19.8213 12.4663L19.7917 12.4475C19.6733 12.3719 19.6733 12.2477 19.7917 12.1722L20.4585 11.7438C20.5769 11.6693 20.6739 11.7309 20.6739 11.882V12.7367C20.6739 12.8877 20.5769 12.9503 20.4594 12.8748L20.4289 12.8549L19.7217 14.2154H22.1716C22.3645 14.2154 22.5216 14.3893 22.5216 14.604C22.5216 14.8187 22.3645 14.9926 22.1716 14.9926ZM21.39 11.0084C21.3254 11.1327 21.2069 11.2032 21.0867 11.2032C21.0265 11.2032 20.9664 11.1853 20.9117 11.1505C20.7439 11.0432 20.6864 10.8057 20.7833 10.6199L22.0899 8.10851C22.2129 7.87298 22.404 7.73782 22.6149 7.73782C22.8267 7.73782 23.0187 7.87298 23.1408 8.10851L23.9314 9.62704L23.961 9.60716C24.0794 9.53164 24.1763 9.59425 24.1763 9.7453V10.6C24.1763 10.751 24.0794 10.8126 23.961 10.7381L23.2942 10.3108C23.1758 10.2343 23.1758 10.111 23.2942 10.0355L23.3238 10.0156L22.6158 8.65411L21.39 11.0084ZM26.2251 14.6726C26.1192 14.8763 25.9182 14.9926 25.6732 14.9926H24.092V15.0313C24.092 15.1824 23.996 15.244 23.8775 15.1695L23.2099 14.7412C23.0923 14.6656 23.0923 14.5424 23.2099 14.4659L23.8775 14.0385C23.996 13.963 24.092 14.0246 24.092 14.1767V14.2154H25.5099C25.3519 13.9123 25.0737 13.3777 24.8269 12.9026L24.2849 11.8611C24.188 11.6753 24.2454 11.4368 24.4132 11.3304C24.5802 11.2231 24.7955 11.2867 24.8916 11.4725L25.4345 12.514C25.7324 13.0875 26.0761 13.7483 26.1981 13.9829C26.3211 14.2184 26.331 14.4698 26.2251 14.6726Z" fill="black"/>
</g>
</svg>
