<svg width="51" height="51" viewBox="0 0 51 51" fill="none" xmlns="http://www.w3.org/2000/svg">
<g clip-path="url(#clip0_41_58)">
<mask id="mask0_41_58" style="mask-type:luminance" maskUnits="userSpaceOnUse" x="0" y="22" width="51" height="29">
<path d="M0.232056 22.6667H50.8259V50.8741H0.232056V22.6667Z" fill="white"/>
</mask>
<g mask="url(#mask0_41_58)">
<path d="M25.4664 22.831L21.7069 22.8506C18.9554 22.8959 16.204 22.9923 13.5015 23.1379C11.3158 23.2451 10.2388 23.6318 10.0447 23.7075L10.0175 23.7193C9.5552 23.9112 9.11279 24.1473 8.69124 24.4277C8.26878 24.708 7.87442 25.0278 7.50635 25.3869C7.13919 25.7469 6.80467 26.1395 6.50459 26.5664C6.20361 26.9934 5.94161 27.446 5.71769 27.9251C3.39415 33.0457 1.83122 36.8776 0.648148 40.3514C0.0380267 42.1153 0.254697 44.0859 1.25646 45.8872C2.42684 47.9975 4.5464 49.5912 6.79016 50.0477C6.8373 50.0575 6.88807 50.0644 6.9343 50.0713C8.36578 50.2435 9.90151 50.3369 10.0574 50.3468C15.1678 50.698 20.3343 50.88 25.4664 50.88C30.5976 50.88 35.7669 50.7029 40.8745 50.3468C41.0304 50.3369 42.567 50.2395 43.9976 50.0713C44.0466 50.0644 44.0955 50.0575 44.1418 50.0477C46.3855 49.5912 48.5051 47.9975 49.6764 45.8872C50.6781 44.081 50.8948 42.1153 50.2847 40.3514C49.1052 36.8776 47.5387 33.0467 45.2142 27.9251C44.9903 27.446 44.7283 26.9934 44.4282 26.5664C44.1272 26.1395 43.7927 25.7469 43.4256 25.3869C43.0584 25.0278 42.6631 24.708 42.2416 24.4277C41.8191 24.1473 41.3767 23.9112 40.9144 23.7193L40.8872 23.7075C40.6904 23.6318 39.6162 23.2451 37.4313 23.1379C34.7316 22.9923 31.9729 22.8959 29.225 22.8506L25.4664 22.831Z" fill="#57B236"/>
</g>
<path d="M32.9828 34.6739L43.9895 50.0713C44.0384 50.0644 44.0883 50.0575 44.1345 50.0477C46.381 49.5912 48.5042 47.9975 49.6773 45.8872C50.6799 44.081 50.8966 42.1153 50.2856 40.3514C49.1061 36.8776 47.5332 33.0467 45.2088 27.9251C44.984 27.445 44.7201 26.9924 44.4192 26.5655C44.1173 26.1385 43.7818 25.745 43.4129 25.3859C43.0439 25.0268 42.6477 24.7061 42.2253 24.4267C41.8019 24.1463 41.3586 23.9112 40.8953 23.7193L32.9828 34.6739Z" fill="#99BADC"/>
<path d="M32.253 34.4801L19.7206 50.7737C21.6507 50.8229 23.5798 50.8475 25.5063 50.8475C30.6466 50.8475 35.8249 50.6704 40.9352 50.3143C41.093 50.3055 42.6305 50.2081 44.0647 50.0388L32.253 34.4801Z" fill="#4193D2"/>
<path d="M25.9406 4.00012C23.6724 1.49341 20.7985 0.00394136 17.7697 0.00984414H17.6872C11.5361 0.117078 6.07311 6.34746 5.91899 12.9979C5.89542 14.4776 6.1266 15.909 6.61433 17.2912L6.62249 17.3138C6.6515 17.5273 9.14366 23.5905 16.8948 32.607C16.922 32.6473 16.951 32.6857 16.9819 32.7221C17.0308 32.7801 17.0834 32.8332 17.1414 32.8795C17.1994 32.9257 17.262 32.9651 17.3273 32.9985C17.3934 33.031 17.4614 33.0565 17.5312 33.0733C17.602 33.091 17.6736 33.1008 17.7452 33.1028C17.8177 33.1048 17.8893 33.0979 17.9601 33.0841C18.0317 33.0693 18.1006 33.0477 18.1668 33.0182C18.2338 32.9887 18.2973 32.9523 18.3571 32.908C18.417 32.8647 18.4723 32.8145 18.523 32.7585C21.5211 29.4952 24.1746 25.9289 26.4836 22.0607C28.1535 19.2283 28.8815 17.4132 28.9105 17.3335L28.9259 17.2912C29.4091 15.9218 29.6412 14.5031 29.6222 13.0373C29.5777 9.7209 28.2233 6.52946 25.9406 4.00012Z" fill="#DD4247"/>
<path d="M33.9873 34.2666L45.1209 49.7988C44.8235 49.9021 44.5208 49.9847 44.2143 50.0477C44.1672 50.0575 44.1155 50.0644 44.0693 50.0713C43.3322 50.1598 42.5689 50.2277 41.9778 50.274L32.2467 36.6995L33.9873 34.2666Z" fill="white"/>
<path d="M33.9874 34.2705L41.3868 23.9486L41.4076 23.921C41.2671 23.8502 41.1239 23.7852 40.9788 23.7272L40.9516 23.7154C40.7875 23.6515 39.9879 23.3642 38.4187 23.2127L38.2664 23.438L18.6736 50.7728C19.8177 50.8072 20.9609 50.8328 22.104 50.8505L32.2467 36.7025L33.9874 34.2705Z" fill="#FCA84C"/>
<path d="M17.8005 18.1461C15.2114 18.1461 13.1027 15.8617 13.1163 13.0727C13.1299 10.2826 15.2458 7.95989 17.8005 7.95694C20.3561 7.95399 22.4675 10.2846 22.4857 13.0776C22.5029 15.8706 20.3915 18.1412 17.8005 18.1461Z" fill="#BA2525"/>
<path d="M24.627 17.8106C24.627 17.8825 24.6143 17.9513 24.5889 18.0172C24.5635 18.0832 24.5282 18.1422 24.481 18.1924C24.4348 18.2435 24.3804 18.2819 24.3197 18.3094C24.2589 18.337 24.1955 18.3508 24.1293 18.3508C24.0631 18.3508 23.9997 18.337 23.9389 18.3094C23.8773 18.2819 23.8238 18.2435 23.7775 18.1924C23.7304 18.1422 23.6941 18.0832 23.6688 18.0172C23.6443 17.9513 23.6316 17.8825 23.6316 17.8106C23.6316 17.7388 23.6443 17.67 23.6688 17.6031C23.6941 17.5372 23.7304 17.4791 23.7775 17.428C23.8238 17.3778 23.8773 17.3384 23.9389 17.3109C23.9997 17.2833 24.0631 17.2696 24.1293 17.2696C24.1955 17.2696 24.2589 17.2833 24.3197 17.3109C24.3804 17.3384 24.4348 17.3778 24.481 17.428C24.5282 17.4791 24.5635 17.5372 24.5889 17.6031C24.6143 17.67 24.627 17.7388 24.627 17.8106Z" fill="black"/>
<path d="M13.0093 17.8106C13.0093 17.8825 12.9966 17.9513 12.9722 18.0172C12.9468 18.0832 12.9105 18.1422 12.8643 18.1924C12.8171 18.2435 12.7636 18.2819 12.702 18.3094C12.6413 18.337 12.5778 18.3508 12.5116 18.3508C12.4454 18.3508 12.382 18.337 12.3212 18.3094C12.2605 18.2819 12.2061 18.2435 12.1599 18.1924C12.1127 18.1422 12.0774 18.0832 12.052 18.0172C12.0266 17.9513 12.0139 17.8825 12.0139 17.8106C12.0139 17.7388 12.0266 17.67 12.052 17.6031C12.0774 17.5372 12.1127 17.4791 12.1599 17.428C12.2061 17.3778 12.2605 17.3384 12.3212 17.3109C12.382 17.2833 12.4454 17.2696 12.5116 17.2696C12.5778 17.2696 12.6413 17.2833 12.702 17.3109C12.7636 17.3384 12.8171 17.3778 12.8643 17.428C12.9105 17.4791 12.9468 17.5372 12.9722 17.6031C12.9966 17.67 13.0093 17.7388 13.0093 17.8106Z" fill="black"/>
<mask id="mask1_41_58" style="mask-type:luminance" maskUnits="userSpaceOnUse" x="22" y="15" width="4" height="5">
<path d="M22.2799 15.8667H25.9932V19.7477H22.2799V15.8667Z" fill="white"/>
</mask>
<g mask="url(#mask1_41_58)">
<path d="M24.1293 15.8736C23.1439 15.8736 22.3452 16.7413 22.3452 17.8107C22.3452 18.88 23.1439 19.7478 24.1293 19.7478C25.1139 19.7478 25.9135 18.88 25.9135 17.8107C25.9135 16.7413 25.1139 15.8736 24.1293 15.8736ZM24.1293 18.7817C23.6362 18.7817 23.2346 18.3458 23.2346 17.8107C23.2346 17.2745 23.6362 16.8387 24.1293 16.8387C24.6225 16.8387 25.0241 17.2745 25.0241 17.8107C25.0241 18.3458 24.6225 18.7817 24.1293 18.7817Z" fill="black"/>
</g>
<mask id="mask2_41_58" style="mask-type:luminance" maskUnits="userSpaceOnUse" x="10" y="15" width="5" height="5">
<path d="M10.6758 15.8667H14.3891V19.7477H10.6758V15.8667Z" fill="white"/>
</mask>
<g mask="url(#mask2_41_58)">
<path d="M12.5116 15.8736C11.5271 15.8736 10.7284 16.7413 10.7284 17.8107C10.7284 18.88 11.5271 19.7478 12.5116 19.7478C13.4971 19.7478 14.2957 18.88 14.2957 17.8107C14.2957 16.7413 13.4971 15.8736 12.5116 15.8736ZM12.5116 18.7817C12.0184 18.7817 11.6168 18.3458 11.6168 17.8107C11.6168 17.2745 12.0184 16.8387 12.5116 16.8387C13.0048 16.8387 13.4064 17.2745 13.4064 17.8107C13.4064 18.3458 13.0048 18.7817 12.5116 18.7817Z" fill="black"/>
</g>
<mask id="mask3_41_58" style="mask-type:luminance" maskUnits="userSpaceOnUse" x="25" y="13" width="3" height="3">
<path d="M25.9932 13.8519H27.0085V15.363H25.9932V13.8519Z" fill="white"/>
</mask>
<g mask="url(#mask3_41_58)">
<path d="M27.0058 14.024V15.2882H26.3848C26.276 15.2882 26.1863 15.1918 26.1863 15.0727V14.2395C26.1863 14.1214 26.276 14.024 26.3848 14.024H27.0058Z" fill="black"/>
</g>
<path d="M25.316 12.5011H22.6815V10.8778H24.3913C24.4285 10.8778 24.4956 10.9201 24.5137 10.9565L25.316 12.5011Z" fill="black"/>
<mask id="mask4_41_58" style="mask-type:luminance" maskUnits="userSpaceOnUse" x="21" y="9" width="7" height="9">
<path d="M21.5836 9.57037H27.0085V17.8815H21.5836V9.57037Z" fill="white"/>
</mask>
<g mask="url(#mask4_41_58)">
<path d="M26.3848 13.5941H27.0058V13.2035C27.0058 12.9743 26.9151 12.632 26.8018 12.4293C26.7982 12.4224 26.7946 12.4165 26.7909 12.4106L25.3613 9.99833C25.2434 9.79862 24.9678 9.63629 24.7502 9.63629H21.6498V17.8107H21.9489C21.9489 16.5052 22.9271 15.4427 24.1292 15.4427C25.3314 15.4427 26.3105 16.5052 26.3105 17.8107H26.6087C26.8272 17.8107 27.0058 17.6168 27.0058 17.3798V15.7191H26.3848C26.0566 15.7191 25.7901 15.4289 25.7901 15.0728V14.2395C25.7901 13.8833 26.0566 13.5941 26.3848 13.5941ZM25.7402 12.7697C25.6849 12.873 25.5816 12.932 25.4574 12.932H22.6815C22.463 12.932 22.2844 12.7382 22.2844 12.5011V10.8778C22.2844 10.6407 22.463 10.4479 22.6815 10.4479H24.3912C24.5735 10.4479 24.7702 10.5729 24.8599 10.745L25.7312 12.4234C25.7919 12.5414 25.7955 12.6674 25.7402 12.7697Z" fill="black"/>
</g>
<mask id="mask5_41_58" style="mask-type:luminance" maskUnits="userSpaceOnUse" x="8" y="15" width="4" height="3">
<path d="M8.60339 15.6148H11.3721V17.8815H8.60339V15.6148Z" fill="white"/>
</mask>
<g mask="url(#mask5_41_58)">
<path d="M10.3313 17.8106H9.00225C8.78467 17.8106 8.60608 17.6168 8.60608 17.3797V16.2661C8.60608 16.03 8.78467 15.8362 9.00225 15.8362H11.3104C10.7202 16.2602 10.3313 16.9872 10.3313 17.8106Z" fill="black"/>
</g>
<path d="M21.2527 15.8362V17.8107H14.6918C14.6918 16.9872 14.3029 16.2602 13.7136 15.8362H21.2527Z" fill="black"/>
<mask id="mask6_41_58" style="mask-type:luminance" maskUnits="userSpaceOnUse" x="9" y="6" width="13" height="10">
<path d="M9.05115 6.55798H21.3515V15.6148H9.05115V6.55798Z" fill="white"/>
</mask>
<g mask="url(#mask6_41_58)">
<path d="M20.8565 6.55896H12.2169C11.9993 6.55896 11.6956 6.69571 11.5406 6.86197C11.5406 6.86295 11.5406 6.86295 11.5397 6.86295L9.47903 9.10109C9.4736 9.10699 9.46906 9.11191 9.46453 9.11683C9.31676 9.28998 9.198 9.60775 9.198 9.83697V15.4053H21.2527V6.98986C21.2527 6.75277 21.0741 6.55896 20.8565 6.55896ZM14.9547 14.0309H12.5886C12.3665 14.0309 12.1851 13.9276 12.089 13.7466C11.993 13.5665 12.002 13.3442 12.1126 13.1356L12.8279 11.7918L12.7998 11.775C12.6928 11.7082 12.6928 11.598 12.7998 11.5311L13.4036 11.1513C13.5115 11.0854 13.5985 11.1395 13.5985 11.2733L13.5994 12.0318C13.5994 12.1656 13.5115 12.2207 13.4045 12.1528L13.3773 12.1361L12.7363 13.3413H14.9547C15.1297 13.3413 15.272 13.4957 15.272 13.6856C15.272 13.8764 15.1297 14.0309 14.9547 14.0309ZM14.2476 10.5C14.1887 10.6102 14.0817 10.6722 13.972 10.6722C13.9185 10.6722 13.8641 10.6565 13.8143 10.625C13.6619 10.5305 13.6103 10.32 13.6982 10.1547L14.8813 7.92939C14.9919 7.72082 15.165 7.60178 15.3563 7.60178C15.5485 7.60178 15.7217 7.72082 15.8323 7.92939L16.5476 9.27522L16.5757 9.2585C16.6826 9.19062 16.7697 9.24571 16.7697 9.38049L16.7706 10.138C16.7706 10.2718 16.6826 10.3269 16.5757 10.26L15.971 9.88124C15.864 9.81336 15.864 9.70416 15.971 9.63726L15.9982 9.61955L15.3572 8.41342L14.2476 10.5ZM18.6245 13.7466C18.5293 13.9276 18.3471 14.0309 18.125 14.0309H16.6944V14.0643C16.6944 14.1991 16.6065 14.2532 16.4995 14.1873L15.8957 13.8076C15.7879 13.7407 15.7879 13.6315 15.8957 13.5636L16.4995 13.1848C16.6065 13.1179 16.6944 13.173 16.6944 13.3068V13.3413H17.9772C17.8349 13.0727 17.5829 12.5995 17.3589 12.1784L16.8685 11.2556C16.7805 11.0903 16.8322 10.8798 16.9845 10.7844C17.1359 10.6899 17.3299 10.746 17.4179 10.9103L17.9083 11.8341C18.1794 12.3417 18.4903 12.9281 18.6009 13.1356C18.7115 13.3442 18.7206 13.5675 18.6245 13.7466Z" fill="black"/>
</g>
</g>
<defs>
<clipPath id="clip0_41_58">
<rect width="51" height="51" fill="white"/>
</clipPath>
</defs>
</svg>
