<svg width="56" height="57" viewBox="0 0 56 57" fill="none" xmlns="http://www.w3.org/2000/svg">
<path d="M46.7391 34.9691L45.2599 29.6604C45.1772 29.3606 45.0738 29.0707 44.9497 28.7887C44.8247 28.5077 44.6809 28.2397 44.5172 27.9835C44.3536 27.7274 44.1728 27.4881 43.9741 27.2647C43.7763 27.0403 43.5623 26.8358 43.3348 26.6501C43.1064 26.4635 42.8663 26.2987 42.6146 26.1557C42.3628 26.0117 42.102 25.8916 41.8323 25.7943C41.5625 25.697 41.2883 25.6235 41.0078 25.5749C40.7281 25.5262 40.4458 25.5024 40.1625 25.5044H10.9512C10.667 25.5024 10.3856 25.5262 10.105 25.5759C9.82541 25.6245 9.55026 25.697 9.28051 25.7943C9.01166 25.8916 8.75 26.0127 8.49823 26.1557C8.24646 26.2997 8.00638 26.4645 7.77799 26.6501C7.5496 26.8358 7.3365 27.0413 7.13868 27.2647C6.93997 27.4891 6.75923 27.7284 6.59558 27.9845C6.43194 28.2397 6.28807 28.5087 6.16308 28.7897C6.0381 29.0707 5.93469 29.3616 5.85287 29.6614L5.07059 32.4702C5.01125 32.6816 4.98607 32.8981 4.99326 33.1185C5.00046 33.3389 5.04002 33.5524 5.11285 33.7579C5.18568 33.9644 5.28639 34.151 5.41587 34.3188C5.54535 34.4876 5.69641 34.6276 5.86905 34.7398L31.9378 51.6717C32.1123 51.7849 32.2984 51.8633 32.4971 51.906C32.6949 51.9497 32.8945 51.9547 33.0942 51.9229C33.2947 51.8911 33.4844 51.8226 33.6633 51.7194C33.8423 51.6161 34.0005 51.4821 34.139 51.3193L46.3389 36.8853C46.4459 36.7592 46.5359 36.6202 46.6087 36.4673C46.6824 36.3154 46.7364 36.1546 46.7714 35.9868C46.8065 35.819 46.8218 35.6483 46.8164 35.4755C46.811 35.3037 46.7849 35.135 46.7391 34.9691Z" fill="#AA6137"/>
<path d="M14.642 35.9532L7.67753 31.411C7.56171 31.3353 7.4405 31.2756 7.31301 31.2308C7.18462 31.186 7.05444 31.1571 6.92066 31.1452C6.78689 31.1332 6.65401 31.1382 6.52113 31.1591C6.38915 31.181 6.25986 31.2188 6.13506 31.2726C6.01027 31.3263 5.89175 31.394 5.78132 31.4776C5.66999 31.5613 5.56943 31.6578 5.47785 31.7663C5.38628 31.8748 5.30727 31.9933 5.23993 32.1227C5.17349 32.2511 5.12052 32.3865 5.08102 32.5289L1.56243 45.207C1.50766 45.4022 1.48163 45.6032 1.48432 45.8083C1.48612 46.0134 1.51664 46.2125 1.575 46.4076C1.63336 46.6017 1.71686 46.7819 1.82639 46.9471C1.93503 47.1124 2.06432 47.2557 2.21425 47.3762C2.36329 47.4976 2.5258 47.5892 2.70177 47.6539C2.87685 47.7186 3.05731 47.7514 3.24227 47.7534C3.42722 47.7554 3.60768 47.7256 3.78455 47.6648C3.96053 47.6041 4.12483 47.5155 4.27656 47.3981L14.7587 39.2622C14.8188 39.2154 14.8772 39.1646 14.932 39.1089C14.9867 39.0541 15.0379 38.9954 15.0864 38.9336C15.1349 38.8709 15.1798 38.8052 15.2202 38.7375C15.2615 38.6689 15.2983 38.5982 15.3306 38.5245C15.3638 38.4509 15.3926 38.3752 15.4168 38.2975C15.441 38.2199 15.4608 38.1413 15.477 38.0616C15.4922 37.981 15.503 37.9004 15.5093 37.8177C15.5156 37.7361 15.5174 37.6545 15.5147 37.5729C15.512 37.4902 15.5039 37.4086 15.4922 37.328C15.4796 37.2473 15.4635 37.1677 15.4419 37.0891C15.4213 37.0104 15.3953 36.9328 15.3656 36.8581C15.336 36.7825 15.3019 36.7098 15.2642 36.6391C15.2265 36.5694 15.1843 36.5017 15.1385 36.437C15.0936 36.3723 15.0442 36.3106 14.9921 36.2529C14.9392 36.1951 14.8835 36.1414 14.8251 36.0916C14.7668 36.0408 14.7057 35.995 14.642 35.9532Z" fill="#689F38"/>
<mask id="mask0_22_277" style="mask-type:luminance" maskUnits="userSpaceOnUse" x="26" y="33" width="25" height="24">
<path d="M26.6487 33.4538H51V57H26.6487V33.4538Z" fill="white"/>
</mask>
<g mask="url(#mask0_22_277)">
<path d="M50.6563 49.3239L46.6728 34.9873C46.6504 34.9058 46.6226 34.8253 46.5903 34.7477C46.558 34.6692 46.5221 34.5947 46.4808 34.5212C46.4395 34.4486 46.3937 34.379 46.3453 34.3135C46.2959 34.2469 46.2421 34.1853 46.1855 34.1266C46.129 34.068 46.0689 34.0143 46.0061 33.9646C45.9432 33.9149 45.8777 33.8692 45.8086 33.8295C45.7404 33.7887 45.6695 33.7539 45.5978 33.7241C45.5251 33.6943 45.4506 33.6695 45.3752 33.6506C45.2998 33.6307 45.2235 33.6168 45.1464 33.6088C45.0692 33.6009 44.992 33.5979 44.9148 33.6009C44.8377 33.6049 44.7605 33.6128 44.6842 33.6267C44.6079 33.6416 44.5326 33.6615 44.4581 33.6864C44.3845 33.7112 44.3118 33.742 44.2418 33.7768C44.1709 33.8126 44.1027 33.8533 44.0372 33.899C43.9717 33.9448 43.9089 33.9944 43.8497 34.0491C43.7895 34.1038 43.733 34.1624 43.68 34.225L27.3118 53.6469C27.1943 53.787 27.0964 53.9431 27.0202 54.114C26.943 54.2859 26.89 54.4658 26.8604 54.6546C26.8317 54.8434 26.8272 55.0323 26.8479 55.2221C26.8685 55.4129 26.9134 55.5948 26.9825 55.7707C27.0507 55.9466 27.1413 56.1076 27.2526 56.2537C27.3639 56.3997 27.4922 56.526 27.6367 56.6303C27.7811 56.7356 27.9355 56.8152 28.1015 56.8698C28.2666 56.9255 28.4362 56.9523 28.6094 56.9523H45.569C45.7763 56.9523 45.9836 56.9394 46.19 56.9125C46.3955 56.8857 46.6001 56.846 46.802 56.7923C47.004 56.7396 47.2023 56.673 47.397 56.5945C47.5917 56.515 47.782 56.4236 47.9668 56.3202C48.1526 56.2169 48.3321 56.1016 48.5044 55.9754C48.6776 55.8482 48.8436 55.711 49.0024 55.563C49.1613 55.4139 49.3111 55.2559 49.4529 55.0889C49.5947 54.921 49.7275 54.7451 49.8504 54.5602C49.9743 54.3754 50.0874 54.1826 50.1906 53.9828C50.2938 53.784 50.3853 53.5783 50.4669 53.3667C50.5477 53.155 50.6177 52.9393 50.676 52.7187C50.7353 52.4981 50.7819 52.2745 50.816 52.0479C50.851 51.8213 50.8744 51.5937 50.8851 51.3641C50.8959 51.1346 50.8941 50.905 50.8806 50.6754C50.8672 50.4459 50.8421 50.2183 50.8044 49.9927C50.7667 49.7661 50.7173 49.5435 50.6563 49.3239Z" fill="#689F38"/>
</g>
<mask id="mask1_22_277" style="mask-type:luminance" maskUnits="userSpaceOnUse" x="0" y="35" width="35" height="22">
<path d="M0 35.4891H34.6892V57H0V35.4891Z" fill="white"/>
</mask>
<g mask="url(#mask1_22_277)">
<path d="M33.7003 48.3191L14.6444 35.9055C14.4972 35.8101 14.342 35.7396 14.1768 35.6938C14.0117 35.6481 13.8448 35.6283 13.6743 35.6362C13.5047 35.6432 13.3396 35.6769 13.1781 35.7376C13.0174 35.7972 12.8667 35.8817 12.7276 35.989L2.25064 44.1114C1.91771 44.3688 1.69157 44.7136 1.57222 45.1439L0.410109 49.3229C0.349087 49.5425 0.299731 49.7651 0.262041 49.9917C0.225248 50.2173 0.199224 50.4459 0.185763 50.6744C0.172303 50.904 0.171405 51.1336 0.182174 51.3631C0.192943 51.5927 0.215377 51.8203 0.250375 52.0469C0.285373 52.2735 0.332037 52.4971 0.390367 52.7177C0.448696 52.9383 0.518692 53.155 0.599456 53.3657C0.681118 53.5773 0.773549 53.7831 0.87585 53.9828C0.979049 54.1826 1.09212 54.3744 1.21596 54.5592C1.3389 54.7441 1.47171 54.921 1.6135 55.0879C1.75528 55.2559 1.90604 55.4139 2.06398 55.562C2.22282 55.711 2.38884 55.8482 2.56203 55.9744C2.73523 56.1016 2.9138 56.2169 3.09956 56.3202C3.28442 56.4236 3.47467 56.515 3.6694 56.5945C3.86503 56.673 4.06335 56.7386 4.26526 56.7923C4.46717 56.846 4.67088 56.8857 4.87728 56.9125C5.08367 56.9394 5.29007 56.9523 5.49737 56.9523H28.6094C28.8553 56.9523 29.0904 56.8986 29.3166 56.7893C29.5418 56.681 29.7383 56.5269 29.9062 56.3282L34.0987 51.3532C34.1894 51.2459 34.2683 51.1286 34.3347 51.0014C34.402 50.8742 34.455 50.74 34.4945 50.5999C34.5348 50.4588 34.56 50.3157 34.5707 50.1686C34.5806 50.0225 34.577 49.8764 34.5573 49.7303C34.5384 49.5852 34.5052 49.4431 34.4577 49.306C34.4092 49.1688 34.3482 49.0386 34.2746 48.9164C34.2001 48.7952 34.1149 48.6829 34.018 48.5825C33.921 48.4811 33.8151 48.3937 33.7012 48.3191H33.7003Z" fill="#AA6137"/>
</g>
<mask id="mask2_22_277" style="mask-type:luminance" maskUnits="userSpaceOnUse" x="0" y="29" width="48" height="28">
<path d="M0 29.892H47.0946V57H0V29.892Z" fill="white"/>
</mask>
<g mask="url(#mask2_22_277)">
<path d="M46.9672 36.0646L29.3659 56.9523H24.5219L29.9869 50.4678L13.8224 39.9354L0.178589 50.5075C0.212689 50.104 0.289864 49.7115 0.409216 49.3289L1.75708 44.495L10.4698 37.7351L4.68524 33.9627L5.74954 30.1107L32.4709 47.5211L45.5305 32.0367C45.6005 31.9413 45.683 31.8628 45.7781 31.8011L46.9672 36.0646Z" fill="#FFB300"/>
</g>
<path d="M34.1558 9.89926C33.563 9.25407 32.9181 8.68145 32.2213 8.18139C31.5236 7.68134 30.7882 7.26381 30.0151 6.92978C29.2411 6.59475 28.4447 6.35019 27.6259 6.19511C26.808 6.04002 25.9838 5.97739 25.1533 6.00722C24.7587 6.02412 24.365 6.0599 23.974 6.11756C23.5821 6.17423 23.1938 6.25277 22.809 6.35019C22.4234 6.44861 22.044 6.56592 21.6682 6.70411C21.2934 6.8413 20.9257 6.99936 20.5642 7.17533C20.2019 7.35228 19.8486 7.54713 19.5042 7.75988C19.1589 7.97362 18.8244 8.20525 18.4988 8.45379C18.1742 8.70232 17.8603 8.96776 17.5571 9.2491C17.2549 9.53044 16.9652 9.82769 16.6872 10.1389C16.4101 10.451 16.1473 10.7771 15.898 11.1171C15.6478 11.4561 15.4137 11.808 15.1949 12.1719C14.9752 12.5367 14.7716 12.9115 14.5841 13.2972C14.3967 13.682 14.2263 14.0766 14.0729 14.4803C13.9187 14.8839 13.7833 15.2944 13.664 15.712C13.5456 16.1295 13.4452 16.553 13.3626 16.9805C13.2801 17.409 13.2156 17.8404 13.1698 18.2759C13.1241 18.7103 13.0972 19.1467 13.0891 19.5851C13.0775 20.3308 13.1214 21.0724 13.2209 21.811C13.3205 22.5487 13.4739 23.2724 13.6819 23.9822C13.8891 24.692 14.1474 25.378 14.4577 26.0401C14.768 26.7022 15.1249 27.3315 15.5285 27.9279C15.7518 28.2998 21.3418 36.9159 23.1283 39.6598C23.1938 39.7602 23.2637 39.8556 23.339 39.9461C23.4144 40.0365 23.4942 40.123 23.5785 40.2036C23.6628 40.2831 23.7516 40.3586 23.844 40.4272C23.9354 40.4958 24.0314 40.5585 24.13 40.6151C24.2296 40.6718 24.3309 40.7215 24.435 40.7643C24.5399 40.808 24.6457 40.8438 24.7542 40.8736C24.8619 40.9024 24.9713 40.9243 25.0816 40.9392C25.1928 40.9551 25.3031 40.9621 25.4143 40.9631C25.5255 40.9641 25.6367 40.9571 25.7479 40.9432C25.8582 40.9293 25.9677 40.9074 26.0762 40.8796C26.1847 40.8517 26.2905 40.8159 26.3955 40.7742C26.5004 40.7314 26.6017 40.6827 26.7013 40.6281C26.8008 40.5724 26.8968 40.5107 26.9901 40.4422C27.0824 40.3746 27.1721 40.3 27.2564 40.2205C27.3416 40.1409 27.4223 40.0564 27.4986 39.966C27.5739 39.8755 27.6456 39.7811 27.7111 39.6816C27.7793 39.5822 35.1539 28.4031 35.4418 27.9985C35.8373 27.406 36.1889 26.7827 36.4956 26.1296C36.8032 25.4754 37.0615 24.7984 37.2714 24.0985C37.4812 23.3997 37.64 22.6859 37.7476 21.9582C37.8552 21.2304 37.9099 20.4988 37.9126 19.7611C37.9153 18.8415 37.8346 17.9309 37.6714 17.0292C37.5081 16.1275 37.2651 15.2527 36.9422 14.4057C36.6194 13.5577 36.2239 12.7554 35.7548 11.9959C35.2849 11.2374 34.7522 10.5385 34.1558 9.89926Z" fill="#80AB24"/>
<path d="M30.8969 20.0137C30.8969 20.2084 30.8879 20.4011 30.8708 20.5949C30.8538 20.7876 30.8286 20.9793 30.7945 21.1701C30.7603 21.3598 30.7181 21.5476 30.6669 21.7333C30.6166 21.9191 30.5582 22.1018 30.4908 22.2806C30.4243 22.4604 30.3497 22.6351 30.2671 22.8069C30.1853 22.9777 30.0954 23.1434 29.9984 23.3052C29.9014 23.466 29.798 23.6218 29.6866 23.7716C29.5761 23.9224 29.4593 24.0652 29.3362 24.203C29.2122 24.3398 29.0828 24.4696 28.9481 24.5935C28.8133 24.7163 28.6731 24.8312 28.5285 24.939C28.3829 25.0469 28.2338 25.1467 28.0792 25.2386C27.9256 25.3295 27.7684 25.4124 27.6066 25.4873C27.4458 25.5612 27.2814 25.6261 27.1143 25.683C26.9471 25.7389 26.7782 25.7859 26.6066 25.8238C26.4359 25.8618 26.2634 25.8897 26.09 25.9087C25.9157 25.9287 25.7414 25.9377 25.5671 25.9377C25.3928 25.9377 25.2185 25.9287 25.0451 25.9087C24.8707 25.8897 24.6991 25.8618 24.5275 25.8238C24.3559 25.7859 24.187 25.7389 24.0199 25.683C23.8528 25.6261 23.6892 25.5612 23.5275 25.4873C23.3667 25.4124 23.2086 25.3295 23.0549 25.2386C22.9013 25.1467 22.7512 25.0469 22.6066 24.939C22.461 24.8312 22.3208 24.7163 22.1861 24.5935C22.0513 24.4696 21.9219 24.3398 21.7988 24.203C21.6757 24.0652 21.558 23.9224 21.4475 23.7716C21.337 23.6218 21.2328 23.466 21.1357 23.3052C21.0387 23.1434 20.9498 22.9777 20.8671 22.8069C20.7844 22.6351 20.7099 22.4604 20.6434 22.2806C20.5769 22.1018 20.5176 21.9191 20.4673 21.7333C20.417 21.5476 20.3738 21.3598 20.3397 21.1701C20.3064 20.9793 20.2804 20.7876 20.2633 20.5949C20.2462 20.4011 20.2382 20.2084 20.2382 20.0137C20.2382 19.8199 20.2462 19.6262 20.2633 19.4334C20.2804 19.2407 20.3064 19.049 20.3397 18.8582C20.3738 18.6685 20.417 18.4797 20.4673 18.294C20.5176 18.1092 20.5769 17.9265 20.6434 17.7467C20.7099 17.5679 20.7844 17.3922 20.8671 17.2214C20.9498 17.0506 21.0387 16.8839 21.1357 16.7231C21.2328 16.5613 21.337 16.4055 21.4475 16.2557C21.558 16.1059 21.6757 15.9621 21.7988 15.8253C21.9219 15.6885 22.0513 15.5577 22.1861 15.4348C22.3208 15.312 22.461 15.1961 22.6066 15.0883C22.7512 14.9804 22.9013 14.8816 23.0549 14.7897C23.2086 14.6978 23.3667 14.6159 23.5275 14.541C23.6892 14.4671 23.8528 14.4012 24.0199 14.3453C24.187 14.2894 24.3559 14.2424 24.5275 14.2045C24.6991 14.1665 24.8707 14.1376 25.0451 14.1186C25.2185 14.0996 25.3928 14.0906 25.5671 14.0906C25.7414 14.0906 25.9157 14.0996 26.09 14.1186C26.2634 14.1376 26.4359 14.1665 26.6066 14.2045C26.7782 14.2424 26.9471 14.2894 27.1143 14.3453C27.2814 14.4012 27.4458 14.4671 27.6066 14.541C27.7684 14.6159 27.9256 14.6978 28.0792 14.7897C28.2338 14.8816 28.3829 14.9804 28.5285 15.0883C28.6731 15.1961 28.8133 15.312 28.9481 15.4348C29.0828 15.5577 29.2122 15.6885 29.3362 15.8253C29.4593 15.9621 29.5761 16.1059 29.6866 16.2557C29.798 16.4055 29.9014 16.5613 29.9984 16.7231C30.0954 16.8839 30.1853 17.0506 30.2671 17.2214C30.3497 17.3922 30.4243 17.5679 30.4908 17.7467C30.5582 17.9265 30.6166 18.1092 30.6669 18.294C30.7181 18.4797 30.7603 18.6685 30.7945 18.8582C30.8286 19.049 30.8538 19.2407 30.8708 19.4334C30.8879 19.6262 30.8969 19.8199 30.8969 20.0137Z" fill="#80AB24"/>
<path d="M32.9206 25.2875C32.9206 25.3733 32.9047 25.4569 32.874 25.5364C32.8433 25.6158 32.7997 25.6857 32.7423 25.7471C32.6858 25.8074 32.6195 25.8551 32.5452 25.8879C32.4709 25.9207 32.3937 25.9377 32.3134 25.9377C32.2332 25.9377 32.155 25.9207 32.0807 25.8879C32.0064 25.8551 31.941 25.8074 31.8846 25.7471C31.8271 25.6857 31.7836 25.6158 31.7528 25.5364C31.7221 25.4569 31.7063 25.3733 31.7063 25.2875C31.7063 25.2007 31.7221 25.1181 31.7528 25.0387C31.7836 24.9593 31.8271 24.8883 31.8846 24.828C31.941 24.7666 32.0064 24.72 32.0807 24.6872C32.155 24.6543 32.2332 24.6374 32.3134 24.6374C32.3937 24.6374 32.4709 24.6543 32.5452 24.6872C32.6195 24.72 32.6858 24.7666 32.7423 24.828C32.7997 24.8883 32.8433 24.9593 32.874 25.0387C32.9047 25.1181 32.9206 25.2007 32.9206 25.2875Z" fill="black"/>
<path d="M19.9683 25.2875C19.9683 25.3733 19.9551 25.4569 19.9277 25.5364C19.9004 25.6158 19.8608 25.6857 19.8106 25.7471C19.7603 25.8074 19.7013 25.8551 19.6352 25.8879C19.5691 25.9207 19.5004 25.9377 19.429 25.9377C19.3568 25.9377 19.2881 25.9207 19.222 25.8879C19.1559 25.8551 19.0977 25.8074 19.0466 25.7471C18.9964 25.6857 18.9576 25.6158 18.9294 25.5364C18.9021 25.4569 18.8889 25.3733 18.8889 25.2875C18.8889 25.2007 18.9021 25.1181 18.9294 25.0387C18.9576 24.9593 18.9964 24.8883 19.0466 24.828C19.0977 24.7666 19.1559 24.72 19.222 24.6872C19.2881 24.6543 19.3568 24.6374 19.429 24.6374C19.5004 24.6374 19.5691 24.6543 19.6352 24.6872C19.7013 24.72 19.7603 24.7666 19.8106 24.828C19.8608 24.8883 19.9004 24.9593 19.9277 25.0387C19.9551 25.1181 19.9683 25.2007 19.9683 25.2875Z" fill="black"/>
<mask id="mask3_22_277" style="mask-type:luminance" maskUnits="userSpaceOnUse" x="30" y="23" width="5" height="5">
<path d="M30.3243 23.0228H34.4595V27.4443H30.3243V23.0228Z" fill="white"/>
</mask>
<g mask="url(#mask3_22_277)">
<path d="M32.3048 23.0725C31.2162 23.0725 30.3341 24.0504 30.3341 25.2579C30.3341 26.4654 31.2162 27.4433 32.3048 27.4433C33.3924 27.4433 34.2754 26.4654 34.2754 25.2579C34.2754 24.0504 33.3924 23.0725 32.3048 23.0725ZM32.3048 26.354C31.76 26.354 31.3167 25.8621 31.3167 25.2579C31.3167 24.6537 31.76 24.1617 32.3048 24.1617C32.8495 24.1617 33.2928 24.6537 33.2928 25.2579C33.2928 25.8621 32.8495 26.354 32.3048 26.354Z" fill="black"/>
</g>
<mask id="mask4_22_277" style="mask-type:luminance" maskUnits="userSpaceOnUse" x="17" y="23" width="5" height="5">
<path d="M17.4595 23.0228H21.5946V27.4443H17.4595V23.0228Z" fill="white"/>
</mask>
<g mask="url(#mask4_22_277)">
<path d="M19.4732 23.0725C18.3847 23.0725 17.5026 24.0504 17.5026 25.2579C17.5026 26.4654 18.3847 27.4433 19.4732 27.4433C20.5608 27.4433 21.443 26.4654 21.443 25.2579C21.443 24.0504 20.5608 23.0725 19.4732 23.0725ZM19.4732 26.354C18.9285 26.354 18.4852 25.8621 18.4852 25.2579C18.4852 24.6537 18.9285 24.1617 19.4732 24.1617C20.0179 24.1617 20.4612 24.6537 20.4612 25.2579C20.4612 25.8621 20.0179 26.354 19.4732 26.354Z" fill="black"/>
</g>
<mask id="mask5_22_277" style="mask-type:luminance" maskUnits="userSpaceOnUse" x="34" y="20" width="2" height="3">
<path d="M34.4595 20.7331H35.4861V22.514H34.4595V20.7331Z" fill="white"/>
</mask>
<g mask="url(#mask5_22_277)">
<path d="M35.4816 20.9856V22.4117H34.796C34.6757 22.4117 34.577 22.3024 34.577 22.1692V21.229C34.577 21.0949 34.6757 20.9856 34.796 20.9856H35.4816Z" fill="black"/>
</g>
<path d="M33.5952 19.2918H30.7618V17.4136H32.6006C32.6417 17.4136 32.7134 17.4625 32.7326 17.5033L33.5952 19.2918Z" fill="black"/>
<mask id="mask6_22_277" style="mask-type:luminance" maskUnits="userSpaceOnUse" x="29" y="15" width="7" height="11">
<path d="M29.4054 15.8993H35.4861V25.3126H29.4054V15.8993Z" fill="white"/>
</mask>
<g mask="url(#mask6_22_277)">
<path d="M34.796 20.4996H35.4816V20.0593C35.4816 19.8 35.382 19.4144 35.2572 19.1858C35.2527 19.1788 35.2483 19.1709 35.2447 19.1649L33.6662 16.4429C33.5361 16.2173 33.2318 16.0334 32.9904 16.0334H29.566V25.2579H29.8963C29.8963 23.7851 30.9767 22.5866 32.3048 22.5866C33.633 22.5866 34.7134 23.7851 34.7134 25.2579H35.0437C35.2842 25.2579 35.4816 25.0393 35.4816 24.772V22.8976H34.796C34.4343 22.8976 34.1391 22.5707 34.1391 22.1692V21.2291C34.1391 20.8266 34.4343 20.4996 34.796 20.4996ZM34.0835 19.5704C34.0224 19.6867 33.9094 19.7533 33.7712 19.7533H30.7057C30.4643 19.7533 30.2678 19.5346 30.2678 19.2673V17.4357C30.2678 17.1674 30.4643 16.9497 30.7057 16.9497H32.5938C32.7948 16.9497 33.0129 17.0909 33.1116 17.2846L34.0736 19.1788C34.1409 19.312 34.1454 19.4541 34.0835 19.5704Z" fill="black"/>
</g>
<mask id="mask7_22_277" style="mask-type:luminance" maskUnits="userSpaceOnUse" x="15" y="23" width="4" height="3">
<path d="M15.1549 23.0228H18.1486V25.3126H15.1549V23.0228Z" fill="white"/>
</mask>
<g mask="url(#mask7_22_277)">
<path d="M17.0645 25.2576H15.5973C15.3559 25.2576 15.1584 25.039 15.1584 24.7716V23.5155C15.1584 23.2481 15.3559 23.0295 15.5973 23.0295H18.1458C17.4943 23.5085 17.0645 24.3284 17.0645 25.2576Z" fill="black"/>
</g>
<path d="M29.1428 23.0482V25.2153H21.863C21.863 24.3115 21.4312 23.5141 20.7777 23.0482H29.1428Z" fill="black"/>
<mask id="mask8_22_277" style="mask-type:luminance" maskUnits="userSpaceOnUse" x="15" y="12" width="15" height="11">
<path d="M15.6216 12.5611H29.1756V22.7685H15.6216V12.5611Z" fill="white"/>
</mask>
<g mask="url(#mask8_22_277)">
<path d="M28.6893 12.5612H19.1474C18.9069 12.5612 18.5713 12.7162 18.4008 12.904C18.3999 12.905 18.3999 12.905 18.3999 12.905L16.1232 15.4303C16.1179 15.4362 16.1125 15.4432 16.1071 15.4482C15.9438 15.6429 15.8127 16.0017 15.8127 16.2611V22.5439H29.1281V13.0471C29.1281 12.7798 28.9307 12.5612 28.6893 12.5612ZM22.1716 20.9926H19.5575C19.3125 20.9926 19.1115 20.8763 19.0065 20.6726C18.8997 20.4698 18.9096 20.2184 19.0325 19.9829L19.8213 18.4663L19.7917 18.4475C19.6733 18.3719 19.6733 18.2477 19.7917 18.1722L20.4585 17.7438C20.5769 17.6693 20.6739 17.7309 20.6739 17.882V18.7367C20.6739 18.8877 20.5769 18.9503 20.4594 18.8748L20.4289 18.8549L19.7217 20.2154H22.1716C22.3645 20.2154 22.5216 20.3893 22.5216 20.604C22.5216 20.8187 22.3645 20.9926 22.1716 20.9926ZM21.39 17.0084C21.3254 17.1327 21.2069 17.2032 21.0867 17.2032C21.0265 17.2032 20.9664 17.1853 20.9117 17.1505C20.7439 17.0432 20.6864 16.8057 20.7833 16.6199L22.0899 14.1085C22.2129 13.873 22.404 13.7378 22.6149 13.7378C22.8267 13.7378 23.0187 13.873 23.1408 14.1085L23.9314 15.627L23.961 15.6072C24.0794 15.5316 24.1763 15.5942 24.1763 15.7453V16.6C24.1763 16.751 24.0794 16.8126 23.961 16.7381L23.2942 16.3108C23.1758 16.2343 23.1758 16.111 23.2942 16.0355L23.3238 16.0156L22.6158 14.6541L21.39 17.0084ZM26.2251 20.6726C26.1192 20.8763 25.9182 20.9926 25.6732 20.9926H24.092V21.0313C24.092 21.1824 23.996 21.244 23.8775 21.1695L23.2099 20.7412C23.0923 20.6656 23.0923 20.5424 23.2099 20.4659L23.8775 20.0385C23.996 19.963 24.092 20.0246 24.092 20.1767V20.2154H25.5099C25.3519 19.9123 25.0737 19.3777 24.8269 18.9026L24.2849 17.8611C24.188 17.6753 24.2454 17.4368 24.4132 17.3304C24.5802 17.2231 24.7955 17.2867 24.8916 17.4725L25.4345 18.514C25.7324 19.0875 26.0761 19.7483 26.1981 19.9829C26.3211 20.2184 26.331 20.4698 26.2251 20.6726Z" fill="black"/>
</g>
</svg>
